<?xml version="1.0" encoding="UTF-8" standalone="no"?>
<svg
   xmlns:dc="http://purl.org/dc/elements/1.1/"
   xmlns:cc="http://creativecommons.org/ns#"
   xmlns:rdf="http://www.w3.org/1999/02/22-rdf-syntax-ns#"
   xmlns:svg="http://www.w3.org/2000/svg"
   xmlns="http://www.w3.org/2000/svg"
   xmlns:sodipodi="http://sodipodi.sourceforge.net/DTD/sodipodi-0.dtd"
   xmlns:inkscape="http://www.inkscape.org/namespaces/inkscape"
   width="2499.3"
   height="642.2171"
   viewBox="0 0 192.70203 49.51648"
   version="1.1"
   id="svg8"
   sodipodi:docname="ajinomoto-1.svg"
   inkscape:version="0.92.4 (5da689c313, 2019-01-14)">
  <metadata
     id="metadata14">
    <rdf:RDF>
      <cc:Work
         rdf:about="">
        <dc:format>image/svg+xml</dc:format>
        <dc:type
           rdf:resource="http://purl.org/dc/dcmitype/StillImage" />
      </cc:Work>
    </rdf:RDF>
  </metadata>
  <defs
     id="defs12" />
  <sodipodi:namedview
     pagecolor="#ffffff"
     bordercolor="#666666"
     borderopacity="1"
     objecttolerance="10"
     gridtolerance="10"
     guidetolerance="10"
     inkscape:pageopacity="0"
     inkscape:pageshadow="2"
     inkscape:window-width="1920"
     inkscape:window-height="1017"
     id="namedview10"
     showgrid="false"
     inkscape:zoom="0.3208125"
     inkscape:cx="1250"
     inkscape:cy="258.76688"
     inkscape:window-x="-8"
     inkscape:window-y="-8"
     inkscape:window-maximized="1"
     inkscape:current-layer="svg8" />
  <g
     id="g6"
     style="clip-rule:evenodd;fill-rule:evenodd"
     transform="translate(-0.2403348,-69.93742)">
    <path
       d="M 0.2403348,69.93742 H 192.94236 V 119.4539 H 0.2403348 Z"
       id="path2"
       inkscape:connector-curvature="0"
       style="fill:#ffffff;stroke-width:0.506769" />
    <path
       d="m 40.126,107.246 c 1.5,-0.702 1.988,-1.157 2.129,-3.219 0.159,-2.483 0.216,-4.654 0.216,-7.82 v -3.84 c 0,-3.16 -0.057,-5.333 -0.216,-7.817 0.596,0.057 1.329,0.139 2.232,0.139 0.901,0 1.637,-0.083 2.236,-0.139 -0.163,2.484 -0.219,4.657 -0.219,7.817 v 3.84 c 0,1.53 0.056,3.39 0.056,5.139 0,4.519 -2.02,6.551 -6.024,7.224 z M 51.549,92.367 c 0,-3.16 -0.053,-5.333 -0.218,-7.817 0.596,0.057 1.337,0.139 2.235,0.139 0.901,0 1.637,-0.083 2.236,-0.139 -0.162,2.484 -0.219,4.657 -0.219,7.817 v 3.84 c 0,3.166 0.057,5.337 0.219,7.82 -0.599,-0.057 -1.335,-0.142 -2.236,-0.142 -0.898,0 -1.639,0.085 -2.235,0.142 0.165,-2.483 0.218,-4.654 0.218,-7.82 z m 9.082,-7.817 a 5.88,5.88 0 0 0 1.223,0.139 5.96,5.96 0 0 0 1.229,-0.139 c 3.925,4.486 7.827,8.946 11.832,13.436 0,-4.489 0,-12.163 -0.192,-13.436 0.411,0.086 0.818,0.139 1.229,0.139 0.408,0 0.819,-0.053 1.229,-0.139 -0.437,8.219 -0.437,11.97 -0.437,19.478 a 5.174,5.174 0 0 0 -1.119,-0.142 c -0.381,0 -0.736,0.059 -1.061,0.142 -3.736,-4.571 -7.72,-9.144 -11.917,-13.721 -0.056,2.12 -0.056,4.462 -0.056,6.581 0,4.519 0.085,6.099 0.166,7.141 a 6.965,6.965 0 0 0 -1.28,-0.142 c -0.41,0 -0.844,0.059 -1.255,0.142 0.133,-0.815 0.547,-8.098 0.547,-13.857 -0.002,-2.542 -0.111,-4.267 -0.138,-5.622 z m 35.96,9.117 c 0,6.155 -2.868,8.979 -6.134,8.979 -3.054,0 -5.727,-2.089 -5.727,-8.101 0,-4.858 2.183,-8.75 5.916,-8.75 3.514,-0.001 5.945,2.99 5.945,7.872 z m -16.329,0.621 c 0,7.058 4.631,10.106 10.384,10.106 6.078,0 10.413,-4.542 10.413,-10.133 0,-6.801 -4.553,-10.074 -10.33,-10.074 -6.329,0 -10.467,4.542 -10.467,10.101 z m 26.361,-3.075 c -0.576,4.262 -0.818,8.556 -1.092,12.814 a 6.983,6.983 0 0 0 -1.279,-0.142 c -0.439,0 -0.85,0.059 -1.285,0.142 1.146,-6.494 2.047,-12.983 2.809,-19.478 0.385,0.086 0.736,0.139 1.117,0.139 a 4.73,4.73 0 0 0 1.092,-0.139 c 1.99,4.486 4.307,9.513 6.297,13.494 2.156,-4.206 4.389,-9.008 6.355,-13.494 0.381,0.086 0.789,0.139 1.168,0.139 a 5.23,5.23 0 0 0 1.148,-0.139 c 0.705,6.495 1.662,15.496 2.342,19.478 a 19.638,19.638 0 0 0 -2.207,-0.142 c -0.734,0 -1.5,0.059 -2.262,0.142 -0.189,-3.922 -0.652,-8.724 -1.094,-13.098 h -0.053 a 925.781,925.781 0 0 0 -6.025,13.098 3.395,3.395 0 0 0 -0.516,-0.057 c -0.168,0 -0.355,0.03 -0.52,0.057 -1.938,-4.259 -3.898,-8.553 -5.941,-12.814 z m 36.914,2.454 c 0,6.155 -2.865,8.979 -6.133,8.979 -3.059,0 -5.725,-2.089 -5.725,-8.101 0,-4.858 2.176,-8.75 5.916,-8.75 3.514,-0.001 5.942,2.99 5.942,7.872 z m -16.332,0.621 c 0,7.058 4.635,10.106 10.391,10.106 6.078,0 10.412,-4.542 10.412,-10.133 0,-6.801 -4.553,-10.074 -10.332,-10.074 -6.33,0 -10.471,4.542 -10.471,10.101 z m 26.59,-5.137 c 0,-1.072 0,-2.087 -0.082,-2.484 -1.068,0 -3.871,0.168 -5.504,0.366 0.08,-0.425 0.133,-0.821 0.133,-1.24 0,-0.426 -0.053,-0.821 -0.133,-1.244 2.48,0.086 4.221,0.139 7.6,0.139 3.385,0 5.123,-0.053 7.439,-0.139 -0.08,0.423 -0.137,0.818 -0.137,1.244 0,0.419 0.057,0.814 0.137,1.24 -1.471,-0.198 -4.273,-0.366 -5.363,-0.366 -0.059,0.396 -0.059,1.412 -0.059,2.484 v 7.056 c 0,3.166 0.059,5.337 0.215,7.82 -0.594,-0.057 -1.332,-0.142 -2.232,-0.142 -0.9,0 -1.633,0.085 -2.232,0.142 0.162,-2.483 0.219,-4.654 0.219,-7.82 v -7.056 z m 25.988,4.516 c 0,6.155 -2.867,8.979 -6.137,8.979 -3.051,0 -5.727,-2.089 -5.727,-8.101 0,-4.858 2.184,-8.75 5.918,-8.75 3.517,-0.001 5.946,2.99 5.946,7.872 z m -16.332,0.621 c 0,7.058 4.635,10.106 10.387,10.106 6.082,0 10.414,-4.542 10.414,-10.133 0,-6.801 -4.555,-10.074 -10.33,-10.074 -6.324,0 -10.471,4.542 -10.471,10.101 z m -129.693,-9.706 -8.49,8.664 c 0,0 -5.985,-0.997 -10.891,2.06 -3.174,1.972 -7.121,5.298 -5.495,8.147 1.467,2.569 7.436,1.85 10.553,-0.942 4.113,-3.688 6.898,-7.703 7.206,-7.548 5.659,2.828 6.947,9.262 6.947,9.262 h 3.858 V 84.582 Z m -18.126,18.791 c -1.331,1.002 -6.122,1.233 -3.433,-3.694 1.209,-2.205 3.916,-4.362 5.808,-5.012 4.223,-1.458 6.467,-0.401 6.467,-0.401 0,0 -6.804,7.576 -8.842,9.107 z m 17.682,-4.089 c 0,0 -3.095,-4.551 -5.738,-5.085 -0.207,-0.037 5.738,-6.397 5.738,-6.397 z"
       id="path4"
       inkscape:connector-curvature="0"
       style="fill:#cc2229" />
  </g>
</svg>
